<?xml version="1.0" encoding="UTF-8" standalone="no"?>
<!-- Created with Inkscape (http://www.inkscape.org/) -->

<svg
   width="17.586205mm"
   height="29.471329mm"
   viewBox="0 0 17.586205 29.471329"
   version="1.1"
   id="svg5"
   xml:space="preserve"
   xmlns:inkscape="http://www.inkscape.org/namespaces/inkscape"
   xmlns:sodipodi="http://sodipodi.sourceforge.net/DTD/sodipodi-0.dtd"
   xmlns="http://www.w3.org/2000/svg"
   xmlns:svg="http://www.w3.org/2000/svg"><sodipodi:namedview
     id="namedview7"
     pagecolor="#ffffff"
     bordercolor="#000000"
     borderopacity="0.25"
     inkscape:showpageshadow="2"
     inkscape:pageopacity="0.0"
     inkscape:pagecheckerboard="0"
     inkscape:deskcolor="#d1d1d1"
     inkscape:document-units="mm"
     showgrid="false" /><defs
     id="defs2"><inkscape:path-effect
       effect="bspline"
       id="path-effect1502-4"
       is_visible="true"
       lpeversion="1"
       weight="33.333333"
       steps="2"
       helper_size="0"
       apply_no_weight="true"
       apply_with_weight="true"
       only_selected="false" /><inkscape:path-effect
       effect="bspline"
       id="path-effect1564-7"
       is_visible="true"
       lpeversion="1"
       weight="33.333333"
       steps="2"
       helper_size="0"
       apply_no_weight="true"
       apply_with_weight="true"
       only_selected="false" /><inkscape:path-effect
       effect="bspline"
       id="path-effect1213-1"
       is_visible="true"
       lpeversion="1"
       weight="33.333333"
       steps="2"
       helper_size="0"
       apply_no_weight="true"
       apply_with_weight="true"
       only_selected="false" /><inkscape:path-effect
       effect="bspline"
       id="path-effect1217-3"
       is_visible="true"
       lpeversion="1"
       weight="33.333333"
       steps="2"
       helper_size="0"
       apply_no_weight="true"
       apply_with_weight="true"
       only_selected="false" /><inkscape:path-effect
       effect="bspline"
       id="path-effect704-8"
       is_visible="true"
       lpeversion="1"
       weight="33.333333"
       steps="2"
       helper_size="0"
       apply_no_weight="true"
       apply_with_weight="true"
       only_selected="false" /><inkscape:path-effect
       effect="bspline"
       id="path-effect708-4"
       is_visible="true"
       lpeversion="1"
       weight="33.333333"
       steps="2"
       helper_size="0"
       apply_no_weight="true"
       apply_with_weight="true"
       only_selected="false" /><inkscape:path-effect
       effect="bspline"
       id="path-effect808-8"
       is_visible="true"
       lpeversion="1"
       weight="33.333333"
       steps="2"
       helper_size="0"
       apply_no_weight="true"
       apply_with_weight="true"
       only_selected="false" /></defs><g
     inkscape:label="Layer 1"
     inkscape:groupmode="layer"
     id="layer1"
     transform="translate(-115.4738,-138.55273)"><g
       id="g663"
       transform="translate(-0.02237181,0.62923718)"><g
         id="layer7"
         inkscape:label="white"
         transform="translate(84.583154,-21.210575)"
         style="display:inline"
         inkscape:highlight-color="#ffffff"><g
           inkscape:groupmode="layer"
           id="layer6"
           inkscape:label="avatar"
           transform="matrix(1.3006329,0,0,1.2999326,-164.22078,-79.698625)"
           style="display:inline"
           inkscape:export-filename="logo_white.svg"
           inkscape:export-xdpi="96"
           inkscape:export-ydpi="96"><g
             inkscape:groupmode="layer"
             id="layer5"
             inkscape:label="beard"
             style="display:inline;opacity:1;fill:#ffff00"
             transform="matrix(0.33123406,0,0,0.33123406,82.29807,139.81698)"><path
               id="path523"
               style="display:inline;opacity:1;fill:#ffffff;stroke:#a6d400;stroke-width:0;paint-order:fill markers stroke"
               inkscape:transform-center-x="-0.033532342"
               inkscape:transform-center-y="1.8991368"
               d="m 227.05148,193.19485 a 2.4918145,1.0252701 0 0 1 -2.47459,0.94452 2.4918145,1.0252701 0 0 1 -1.06996,-0.10442 5.189366,1.4091784 60.781574 0 1 1.76688,2.49512 5.189366,1.4091784 60.781574 0 1 1.70929,4.48017 1.4091784,5.189366 29.218426 0 1 1.68771,-4.29414 1.4091784,5.189366 29.218426 0 1 1.98039,-2.72196 2.4918145,1.0252701 0 0 1 -1.13474,0.11522 2.4918145,1.0252701 0 0 1 -2.46498,-0.91451 z"
               inkscape:label="path523" /><path
               style="display:inline;opacity:1;fill:#ffffff;stroke:#a6d400;stroke-width:0;paint-order:fill markers stroke"
               d="m 238.0468,186.35422 c 0.012,0.24523 0.0359,0.7352 -0.18879,1.2793 -0.22466,0.54411 -0.69775,1.14272 -1.46718,1.30592 -0.76943,0.16319 -1.83576,-0.10916 -2.79148,-0.81224 -0.95573,-0.70308 -1.80064,-1.83721 -2.449,-2.60281 -0.64837,-0.7656 -1.10025,-1.16251 -1.71554,-1.35262 -0.61528,-0.19012 -1.39389,-0.17298 -1.90035,0.3083 -0.50646,0.48127 -0.74018,1.4263 -0.7984,2.4093 -0.0582,0.98299 0.0589,2.00369 0.31016,2.6269 0.25125,0.62321 0.63611,0.8491 1.33055,1.22141 0.69444,0.3723 1.69841,0.89102 2.95315,1.1759 1.25473,0.28488 2.7602,0.33619 4.08197,0.01 1.32178,-0.32636 2.46007,-1.03025 3.08771,-1.87141 0.62763,-0.84116 0.74476,-1.82003 0.74638,-2.48813 0.002,-0.66809 -0.11248,-1.02545 -0.23285,-1.25909 -0.12038,-0.23364 -0.24731,-0.34334 -0.47495,-0.50937 -0.22763,-0.16602 -0.55597,-0.38827 -0.65668,-0.34521 -0.10071,0.0431 0.0265,0.35118 0.0899,0.50497 0.0635,0.15378 0.0634,0.15382 0.0754,0.39905 z"
               id="path1500"
               inkscape:path-effect="#path-effect1502-4"
               inkscape:original-d="m 238.03484,186.10899 c 0.0244,0.49044 0.0484,0.9804 0.0717,1.4699 -0.47267,0.59915 -0.94575,1.19777 -1.41935,1.79595 -1.06587,-0.27189 -2.1322,-0.54423 -3.199,-0.81705 -0.84449,-1.13373 -1.68939,-2.26786 -2.53482,-3.40251 -0.45142,-0.39645 -0.9033,-0.79337 -1.35564,-1.19075 -0.77819,0.0177 -1.5568,0.0347 -2.33591,0.0514 -0.23327,0.94555 -0.46699,1.89058 -0.70118,2.83516 0.11762,1.02122 0.23476,2.04192 0.35141,3.06217 0.38533,0.22638 0.77019,0.45227 1.1546,0.67769 1.00447,0.51921 2.00843,1.03794 3.01195,1.55619 1.50604,0.0517 3.0115,0.10309 4.5166,0.15392 1.13881,-0.70346 2.27711,-1.40734 3.41494,-2.11172 0.11762,-0.97844 0.23474,-1.95731 0.3514,-2.93667 -0.11372,-0.35696 -0.22774,-0.71434 -0.34233,-1.07223 -0.12647,-0.10929 -0.25342,-0.21897 -0.38085,-0.32916 -0.32788,-0.22179 -0.65622,-0.44404 -0.98499,-0.66672 0.12771,0.30858 0.25482,0.61673 0.38154,0.92439 z"
               sodipodi:nodetypes="scccccccccccccccsss" /><path
               style="display:inline;opacity:1;fill:#ffffff;stroke:#a6d400;stroke-width:0;paint-order:fill markers stroke"
               d="m 215.66225,186.43705 c -0.012,0.24523 -0.0359,0.73519 0.18879,1.2793 0.22466,0.54411 0.69774,1.14272 1.46717,1.30591 0.76944,0.1632 1.83577,-0.10915 2.79149,-0.81223 0.95573,-0.70308 1.80064,-1.83721 2.449,-2.60281 0.64837,-0.7656 1.10025,-1.16251 1.71554,-1.35262 0.61528,-0.19012 1.39389,-0.17298 1.90035,0.30829 0.50645,0.48128 0.74017,1.42631 0.7984,2.4093 0.0582,0.98299 -0.0589,2.00369 -0.31016,2.6269 -0.25125,0.62322 -0.63611,0.84911 -1.33055,1.22141 -0.69444,0.3723 -1.69841,0.89102 -2.95314,1.17591 -1.25474,0.28488 -2.76021,0.33619 -4.08198,0.01 -1.32178,-0.32636 -2.46007,-1.03025 -3.08771,-1.87141 -0.62763,-0.84116 -0.74476,-1.82004 -0.74638,-2.48813 -0.002,-0.66809 0.11248,-1.02545 0.23285,-1.25909 0.12038,-0.23364 0.24731,-0.34335 0.47494,-0.50937 0.22764,-0.16603 0.55597,-0.38827 0.65669,-0.34521 0.10072,0.043 -0.0265,0.35118 -0.0899,0.50497 -0.0635,0.15378 -0.0634,0.15382 -0.0754,0.39905 z"
               id="path1560"
               inkscape:path-effect="#path-effect1564-7"
               inkscape:original-d="m 215.67421,186.19182 c -0.0244,0.49044 -0.0483,0.9804 -0.0717,1.4699 0.47267,0.59915 0.94575,1.19776 1.41935,1.79595 1.06587,-0.27189 2.1322,-0.54423 3.199,-0.81705 0.84449,-1.13373 1.68939,-2.26786 2.53482,-3.40251 0.45142,-0.39646 0.9033,-0.79337 1.35564,-1.19075 0.77819,0.0177 1.5568,0.0347 2.33591,0.0514 0.23327,0.94554 0.46699,1.89057 0.70118,2.83516 -0.11762,1.02121 -0.23476,2.04191 -0.35141,3.06217 -0.38533,0.22637 -0.77019,0.45227 -1.1546,0.67769 -1.00447,0.5192 -2.00843,1.03793 -3.01195,1.55618 -1.50604,0.0517 -3.0115,0.10309 -4.5166,0.15393 -1.13881,-0.70346 -2.27711,-1.40734 -3.41494,-2.11172 -0.11762,-0.97844 -0.23474,-1.95732 -0.3514,-2.93668 0.11372,-0.35695 0.22774,-0.71433 0.34233,-1.07222 0.12647,-0.10929 0.25342,-0.21897 0.38085,-0.32917 0.32788,-0.22178 0.65621,-0.44403 0.98499,-0.66672 -0.12771,0.30858 -0.25482,0.61674 -0.38154,0.9244 z"
               sodipodi:nodetypes="scccccccccccccccsss" /></g><g
             inkscape:groupmode="layer"
             id="layer4"
             inkscape:label="glasses"
             transform="matrix(0.16178678,0,0,0.16178678,130.56153,159.04142)"
             style="display:inline"><g
               id="g1232"
               style="display:inline;fill:#000000"
               inkscape:label="body"><circle
                 style="display:inline;opacity:1;fill:#ffffff;stroke:#a6d400;stroke-width:0;paint-order:fill markers stroke"
                 id="path981"
                 cx="179.27373"
                 cy="243.20114"
                 r="12.273878" /><circle
                 style="display:inline;opacity:1;fill:#000000;stroke:#a6d400;stroke-width:0;paint-order:fill markers stroke"
                 id="circle1035"
                 cx="179.17984"
                 cy="243.15419"
                 r="10.490293" /></g><g
               id="g1228"
               style="display:inline"
               inkscape:label="support"><circle
                 style="opacity:1;fill:#ffffff;stroke:#a6d400;stroke-width:0;paint-order:fill markers stroke"
                 id="circle1091"
                 cx="192.83835"
                 cy="239.5401"
                 r="3.3559546" /><circle
                 style="opacity:1;fill:#000000;stroke:#a6d400;stroke-width:0;paint-order:fill markers stroke"
                 id="circle1093"
                 cx="192.79141"
                 cy="239.49316"
                 r="1.7601161" /></g><g
               id="g1224"
               style="display:inline;fill:#ffffff"
               inkscape:label="string"><rect
                 style="opacity:1;fill:#ffffff;stroke:#a6d400;stroke-width:0;paint-order:fill markers stroke"
                 id="rect1147"
                 width="1.9713304"
                 height="8.4016218"
                 x="194.22299"
                 y="248.24681"
                 ry="0.6101737"
                 inkscape:label="rect1147" /><rect
                 style="opacity:1;fill:#ffffff;stroke:#a6d400;stroke-width:0;paint-order:fill markers stroke"
                 id="rect1149"
                 width="1.9713304"
                 height="7.462893"
                 x="194.08218"
                 y="240.40843"
                 ry="0.54199785" /><rect
                 style="opacity:1;fill:#ffffff;stroke:#a6d400;stroke-width:0;paint-order:fill markers stroke"
                 id="rect1151"
                 width="1.9713304"
                 height="9.3872871"
                 x="194.26993"
                 y="257.16473"
                 ry="0.68175834" /><rect
                 style="display:inline;opacity:1;fill:#ffffff;stroke:#a6d400;stroke-width:0;paint-order:fill markers stroke"
                 id="rect1153"
                 width="1.9713305"
                 height="8.2608128"
                 x="194.26993"
                 y="267.06833"
                 ry="0.59994733" /><rect
                 style="display:inline;opacity:1;fill:#ffffff;stroke:#a6d400;stroke-width:0;paint-order:fill markers stroke"
                 id="rect1155"
                 width="1.9713305"
                 height="8.4016218"
                 x="194.22299"
                 y="275.98624"
                 ry="0.6101737" /></g><g
               id="g1238"
               style="display:inline;fill:#ffffff"
               inkscape:label="detail"><path
                 style="display:inline;opacity:1;fill:#ffffff;stroke:#a6d400;stroke-width:0;paint-order:fill markers stroke"
                 d="m 172.68711,245.45425 c 0.78525,-2.10032 2.44427,-6.16843 3.31794,-8.23345 0.87368,-2.06501 0.96193,-2.12679 1.75625,-2.18855 0.79433,-0.0618 2.29446,-0.12353 3.40197,0.0531 1.10752,0.17659 1.8223,0.59133 2.09127,0.94426 0.26896,0.35293 0.0925,0.64414 -0.29141,1.46927 -0.38387,0.82513 -0.9751,2.18408 -1.69872,3.93136 -0.72362,1.74728 -1.57958,3.88277 -2.27673,5.72271 -0.69714,1.83994 -1.23543,3.3842 -1.65443,4.02843 -0.41899,0.64423 -0.71902,0.38833 -1.27938,-0.0132 -0.56035,-0.40154 -1.38101,-0.94865 -2.087,-1.53104 -0.70599,-0.58239 -1.29723,-1.20009 -1.637,-1.57512 -0.33978,-0.37503 -0.42801,-0.50739 0.35724,-2.60771 z"
                 id="path1211"
                 inkscape:path-effect="#path-effect1213-1"
                 inkscape:original-d="m 171.81341,247.4219 c 1.65927,-4.06784 3.31828,-8.13595 4.97703,-12.20431 0.0885,-0.0615 0.17675,-0.12328 0.26473,-0.18532 1.50047,-0.0615 3.0006,-0.12328 4.50051,-0.18531 0.71506,0.41502 1.42984,0.82977 2.14436,1.24425 -0.17623,0.29148 -0.35272,0.58269 -0.52947,0.87363 -0.59099,1.35927 -1.18223,2.71822 -1.77373,4.07693 -0.85574,2.13584 -1.7117,4.27133 -2.56794,6.4066 -0.53804,1.54459 -1.07633,3.08885 -1.61489,4.63287 -0.29977,-0.25565 -0.5998,-0.51155 -0.9001,-0.76773 -0.82043,-0.54687 -1.64109,-1.09398 -2.46204,-1.64136 -0.59099,-0.61746 -1.18222,-1.23517 -1.77373,-1.85315 -0.088,-0.1321 -0.17622,-0.26447 -0.26473,-0.3971 z" /><path
                 style="display:inline;opacity:1;fill:#ffffff;stroke:#a6d400;stroke-width:0;paint-order:fill markers stroke"
                 d="m 180.35993,249.05891 c 0.94861,-2.33402 2.84588,-7.00219 3.83443,-9.31861 0.98855,-2.31643 1.06795,-2.28114 1.35912,-1.96779 0.29117,0.31334 0.79414,0.90456 0.98814,1.35014 0.19399,0.44558 0.0793,0.7456 -0.74583,2.82822 -0.82511,2.08262 -2.36054,5.9477 -3.1773,7.83649 -0.81675,1.8888 -0.91522,1.80108 -1.27704,1.75678 -0.36182,-0.0443 -0.987,-0.045 -1.35251,-0.0629 -0.36551,-0.0179 -0.4714,-0.0532 -0.52451,-0.0709 -0.0531,-0.0177 -0.0531,-0.0174 0.8955,-2.35141 z"
                 id="path1215"
                 inkscape:path-effect="#path-effect1217-3"
                 inkscape:original-d="m 179.41132,251.39293 c 1.89754,-4.66791 3.79481,-9.33608 5.69182,-14.00451 0.0797,0.0356 0.1591,0.0709 0.23826,0.10589 0.50327,0.59152 1.00625,1.18274 1.50899,1.77374 -0.11446,0.3003 -0.22917,0.60032 -0.34416,0.90009 -1.53523,3.86548 -3.07067,7.73055 -4.60639,11.59542 -0.0981,-0.0874 -0.19658,-0.1751 -0.29527,-0.26305 -0.62494,-3e-4 -1.25012,-8.5e-4 -1.87557,-0.002 -0.10563,-0.035 -0.21152,-0.0703 -0.31768,-0.10589 z"
                 sodipodi:nodetypes="scccccccss" /></g></g><g
             inkscape:groupmode="layer"
             id="layer2"
             inkscape:label="heat"
             style="display:inline;fill:#ffffff"
             transform="matrix(0.33123406,0,0,0.33123406,82.29807,139.81698)"><path
               style="opacity:1;fill:#ffffff;stroke:#a6d400;stroke-width:0;paint-order:fill markers stroke"
               d="m 205.53681,138.80104 c 1.14406,-0.90596 3.99109,-2.60873 8.0166,-3.92326 4.02551,-1.31453 9.22895,-2.24079 13.09779,-2.30878 3.86885,-0.068 6.40252,0.72206 7.27405,1.52568 0.87153,0.80362 0.0815,1.62093 -1.88005,2.663 -1.9615,1.04206 -5.09452,2.30888 -8.48635,2.99003 -3.39182,0.68115 -7.04249,0.7765 -10.09384,0.70842 -3.05135,-0.0681 -5.50322,-0.29964 -7.0085,-0.4699 -1.50527,-0.17025 -2.06376,-0.27923 -0.9197,-1.18519 z"
               id="path702"
               inkscape:path-effect="#path-effect704-8"
               inkscape:original-d="m 203.83371,139.59792 c 2.84749,-1.7023 5.69452,-3.40506 8.54107,-5.10828 5.20423,-0.92586 10.40767,-1.85212 15.61095,-2.7789 2.53423,0.79055 5.0679,1.58061 7.60114,2.37022 -0.78962,0.8178 -1.57968,1.63512 -2.37025,2.45199 -3.13269,1.26736 -6.26571,2.53418 -9.39926,3.80056 -3.65032,0.0958 -7.30099,0.1912 -10.95218,0.28607 -2.45156,-0.2311 -4.90343,-0.46267 -7.35595,-0.69472 -0.55805,-0.10859 -1.11655,-0.21749 -1.67552,-0.32694 z"
               sodipodi:nodetypes="ccccccccc" /><path
               style="opacity:1;fill:#ffffff;stroke:#a6d400;stroke-width:0;paint-order:fill markers stroke"
               d="m 206.70143,140.94656 c 2.05039,0.24523 6.15064,0.73562 10.74126,0.4018 4.59062,-0.33383 9.67143,-1.49165 12.77571,-2.66799 3.10428,-1.17633 4.23192,-2.3711 4.78213,-2.85935 0.55022,-0.48824 0.52298,-0.2703 0.58984,5.20979 0.0668,5.48009 0.22773,16.2218 0.37088,21.50243 0.14314,5.28063 0.26862,5.10034 -1.11381,5.67056 -1.38244,0.57023 -4.27149,1.89046 -6.474,2.55228 -2.2025,0.66181 -3.71548,0.66415 -5.62713,0.58519 -1.91166,-0.079 -4.22079,-0.23923 -5.39568,-0.33957 -1.17489,-0.10034 -1.2162,-0.14166 -1.25706,-0.18252 -3.75956,-9.91653 -7.5192,-19.83325 -9.47382,-24.85307 -1.95463,-5.01982 -2.10447,-5.14242 -2.13174,-5.20392 -0.0273,-0.0615 0.0681,-0.0615 0.11555,-0.0615 0.0474,0 0.0475,6.5e-4 2.09787,0.24588 z"
               id="path706"
               inkscape:path-effect="#path-effect708-4"
               inkscape:original-d="m 204.65104,140.70133 c 4.10073,0.49086 8.20098,0.98125 12.30077,1.47118 5.08162,-1.15743 10.16243,-2.31527 15.24316,-3.47363 1.12818,-1.1944 2.25583,-2.38916 3.38306,-3.58446 -0.0268,0.21842 -0.054,0.43636 -0.0817,0.65384 0.16137,10.74263 0.32224,21.48434 0.48265,32.2258 0.12594,-0.17982 0.25143,-0.36011 0.37647,-0.54091 -2.89019,1.32145 -5.77924,2.64168 -8.67087,3.96241 -1.51364,0.004 -3.02662,0.005 -4.54095,0.007 -2.30901,-0.15977 -4.61814,-0.32009 -6.92749,-0.4808 -0.0404,-0.0404 -0.12257,-0.12258 -0.12257,-0.12258 -3.75931,-9.91663 -7.51893,-19.83335 -11.27911,-29.7507 -0.14932,-0.12222 -0.29921,-0.24475 -0.44952,-0.3678 0.0958,4.6e-4 0.19118,4.6e-4 0.28606,0 z"
               sodipodi:nodetypes="sccccccccccccss" /><path
               style="opacity:1;fill:#ffffff;stroke:#a6d400;stroke-width:0;paint-order:fill markers stroke"
               d="m 208.34243,174.27802 c 0.32367,-0.36273 0.97099,-1.08817 1.75223,-1.84786 0.78125,-0.75969 1.69625,-1.55346 3.18184,-1.52772 1.48559,0.0257 3.54102,0.8707 6.32605,1.25223 2.78503,0.38152 6.2994,0.29979 9.28255,-0.42223 2.98314,-0.72202 5.43504,-2.08418 7.05601,-3.17392 1.62098,-1.08974 2.41103,-1.90704 4.01873,-2.15902 1.60771,-0.25198 4.03235,0.0613 4.92431,1.04902 0.89195,0.98772 0.25173,2.64958 -0.87881,3.99802 -1.13055,1.34844 -2.75155,2.3837 -5.2988,3.22828 -2.54725,0.84459 -6.02072,1.49842 -9.38544,2.00247 -3.36472,0.50404 -6.62035,0.8582 -9.5491,1.0353 -2.92876,0.17711 -5.53053,0.17711 -7.4308,0.11583 -1.90028,-0.0613 -3.09898,-0.18389 -3.71782,-0.6195 -0.61884,-0.43561 -0.65728,-1.18467 -0.66135,-1.66491 -0.004,-0.48024 0.0264,-0.69157 0.0416,-0.79742 0.0152,-0.10585 0.0152,-0.10585 0.33883,-0.46857 z"
               id="path806"
               inkscape:path-effect="#path-effect808-8"
               inkscape:original-d="m 208.01877,174.64074 c 0.64782,-0.72501 1.29514,-1.45045 1.94204,-2.17641 0.91554,-0.79335 1.83053,-1.58713 2.74513,-2.38142 2.05605,0.8455 4.11148,1.69047 6.16659,2.53503 3.51506,-0.0813 7.02943,-0.16296 10.54353,-0.2452 2.45249,-1.36177 4.90439,-2.72392 7.35594,-4.08663 0.79057,-0.81687 1.58061,-1.63417 2.37024,-2.45197 2.42526,0.31377 4.8499,0.62706 7.27421,0.93991 -0.63978,1.66241 -1.28,3.32427 -1.92072,4.98571 -1.62059,1.03576 -3.24159,2.07102 -4.86308,3.10583 -3.47326,0.65436 -6.94673,1.30819 -10.42093,1.96161 -3.25529,0.35463 -6.51091,0.7088 -9.76706,1.0625 -2.60142,4.8e-4 -5.20319,4.8e-4 -7.80547,0 -1.1983,-0.12222 -2.39701,-0.24474 -3.59624,-0.36783 -0.0379,-0.74859 -0.0765,-1.49764 -0.11532,-2.24717 0.0308,-0.21086 0.0613,-0.42218 0.0912,-0.63396 z"
               sodipodi:nodetypes="scccccccccccccss" /></g></g></g></g></g></svg>
